<mxfile host="app.diagrams.net" modified="2021-10-29T11:24:52.557Z" agent="5.0 (Windows NT 10.0; Win64; x64) AppleWebKit/537.36 (KHTML, like Gecko) Chrome/94.0.4606.81 Safari/537.36" etag="6NgkfHy2XIW4LOqmxc52" version="15.5.8" type="github">
  <diagram name="Page-1" id="e7e014a7-5840-1c2e-5031-d8a46d1fe8dd">
    <mxGraphModel dx="782" dy="411" grid="1" gridSize="10" guides="1" tooltips="1" connect="1" arrows="1" fold="1" page="1" pageScale="1" pageWidth="1169" pageHeight="826" background="none" math="0" shadow="0">
      <root>
        <mxCell id="0" />
        <mxCell id="1" parent="0" />
        <mxCell id="HW165cEcBYJvz82ddMG0-41" value="" style="whiteSpace=wrap;html=1;aspect=fixed;" vertex="1" parent="1">
          <mxGeometry x="160" y="200" width="360" height="360" as="geometry" />
        </mxCell>
        <mxCell id="HW165cEcBYJvz82ddMG0-42" value="" style="rounded=0;whiteSpace=wrap;html=1;" vertex="1" parent="1">
          <mxGeometry x="160" y="200" width="360" height="30" as="geometry" />
        </mxCell>
        <mxCell id="HW165cEcBYJvz82ddMG0-43" value="Customer" style="text;html=1;strokeColor=none;fillColor=none;align=center;verticalAlign=middle;whiteSpace=wrap;rounded=0;" vertex="1" parent="1">
          <mxGeometry x="160" y="200" width="360" height="30" as="geometry" />
        </mxCell>
        <mxCell id="HW165cEcBYJvz82ddMG0-44" value="" style="rounded=0;whiteSpace=wrap;html=1;" vertex="1" parent="1">
          <mxGeometry x="160" y="230" width="360" height="120" as="geometry" />
        </mxCell>
        <mxCell id="HW165cEcBYJvz82ddMG0-45" value="PRIMARY KEY id int NOT NULL auto_increment" style="text;html=1;strokeColor=none;fillColor=none;align=center;verticalAlign=middle;whiteSpace=wrap;rounded=0;" vertex="1" parent="1">
          <mxGeometry x="160" y="230" width="360" height="30" as="geometry" />
        </mxCell>
        <mxCell id="HW165cEcBYJvz82ddMG0-47" value="first_name String NOT NULL" style="text;html=1;strokeColor=none;fillColor=none;align=center;verticalAlign=middle;whiteSpace=wrap;rounded=0;" vertex="1" parent="1">
          <mxGeometry x="160" y="260" width="360" height="30" as="geometry" />
        </mxCell>
        <mxCell id="HW165cEcBYJvz82ddMG0-48" value="surname String NOT NULL" style="text;html=1;strokeColor=none;fillColor=none;align=center;verticalAlign=middle;whiteSpace=wrap;rounded=0;" vertex="1" parent="1">
          <mxGeometry x="160" y="290" width="360" height="30" as="geometry" />
        </mxCell>
        <mxCell id="HW165cEcBYJvz82ddMG0-49" value="create(id, first_name, surname)" style="text;html=1;strokeColor=none;fillColor=none;align=center;verticalAlign=middle;whiteSpace=wrap;rounded=0;" vertex="1" parent="1">
          <mxGeometry x="160" y="350" width="360" height="30" as="geometry" />
        </mxCell>
        <mxCell id="HW165cEcBYJvz82ddMG0-50" value="read(id, first_name, surname)" style="text;html=1;strokeColor=none;fillColor=none;align=center;verticalAlign=middle;whiteSpace=wrap;rounded=0;" vertex="1" parent="1">
          <mxGeometry x="160" y="380" width="360" height="30" as="geometry" />
        </mxCell>
        <mxCell id="HW165cEcBYJvz82ddMG0-51" value="readAll()" style="text;html=1;strokeColor=none;fillColor=none;align=center;verticalAlign=middle;whiteSpace=wrap;rounded=0;" vertex="1" parent="1">
          <mxGeometry x="160" y="410" width="360" height="30" as="geometry" />
        </mxCell>
        <mxCell id="HW165cEcBYJvz82ddMG0-52" value="readLatest()" style="text;html=1;strokeColor=none;fillColor=none;align=center;verticalAlign=middle;whiteSpace=wrap;rounded=0;" vertex="1" parent="1">
          <mxGeometry x="160" y="440" width="360" height="30" as="geometry" />
        </mxCell>
        <mxCell id="HW165cEcBYJvz82ddMG0-53" value="" style="whiteSpace=wrap;html=1;aspect=fixed;" vertex="1" parent="1">
          <mxGeometry x="600" y="200" width="360" height="360" as="geometry" />
        </mxCell>
        <mxCell id="HW165cEcBYJvz82ddMG0-54" value="" style="rounded=0;whiteSpace=wrap;html=1;" vertex="1" parent="1">
          <mxGeometry x="600" y="200" width="360" height="30" as="geometry" />
        </mxCell>
        <mxCell id="HW165cEcBYJvz82ddMG0-55" value="" style="rounded=0;whiteSpace=wrap;html=1;" vertex="1" parent="1">
          <mxGeometry x="600" y="230" width="360" height="120" as="geometry" />
        </mxCell>
        <mxCell id="HW165cEcBYJvz82ddMG0-56" value="Item" style="text;html=1;strokeColor=none;fillColor=none;align=center;verticalAlign=middle;whiteSpace=wrap;rounded=0;" vertex="1" parent="1">
          <mxGeometry x="600" y="200" width="360" height="30" as="geometry" />
        </mxCell>
        <mxCell id="HW165cEcBYJvz82ddMG0-57" value="PRIMARY KEY itemId int NOT NULL auto_increment" style="text;html=1;strokeColor=none;fillColor=none;align=center;verticalAlign=middle;whiteSpace=wrap;rounded=0;" vertex="1" parent="1">
          <mxGeometry x="600" y="230" width="360" height="30" as="geometry" />
        </mxCell>
        <mxCell id="HW165cEcBYJvz82ddMG0-58" value="itemName varchar(40) NOT NULL" style="text;html=1;strokeColor=none;fillColor=none;align=center;verticalAlign=middle;whiteSpace=wrap;rounded=0;" vertex="1" parent="1">
          <mxGeometry x="600" y="260" width="360" height="30" as="geometry" />
        </mxCell>
        <mxCell id="HW165cEcBYJvz82ddMG0-59" value="price double NOT NULL" style="text;html=1;strokeColor=none;fillColor=none;align=center;verticalAlign=middle;whiteSpace=wrap;rounded=0;" vertex="1" parent="1">
          <mxGeometry x="600" y="290" width="360" height="30" as="geometry" />
        </mxCell>
        <mxCell id="HW165cEcBYJvz82ddMG0-60" value="create(itemId, itemName, price)" style="text;html=1;strokeColor=none;fillColor=none;align=center;verticalAlign=middle;whiteSpace=wrap;rounded=0;" vertex="1" parent="1">
          <mxGeometry x="600" y="320" width="360" height="30" as="geometry" />
        </mxCell>
        <mxCell id="HW165cEcBYJvz82ddMG0-61" value="read(id, itemName, price)" style="text;html=1;strokeColor=none;fillColor=none;align=center;verticalAlign=middle;whiteSpace=wrap;rounded=0;" vertex="1" parent="1">
          <mxGeometry x="600" y="380" width="360" height="30" as="geometry" />
        </mxCell>
        <mxCell id="HW165cEcBYJvz82ddMG0-62" value="readAll()" style="text;html=1;strokeColor=none;fillColor=none;align=center;verticalAlign=middle;whiteSpace=wrap;rounded=0;" vertex="1" parent="1">
          <mxGeometry x="600" y="410" width="360" height="30" as="geometry" />
        </mxCell>
        <mxCell id="HW165cEcBYJvz82ddMG0-63" value="readLatest()" style="text;html=1;strokeColor=none;fillColor=none;align=center;verticalAlign=middle;whiteSpace=wrap;rounded=0;" vertex="1" parent="1">
          <mxGeometry x="600" y="440" width="360" height="30" as="geometry" />
        </mxCell>
        <mxCell id="HW165cEcBYJvz82ddMG0-64" value="update(itemId, itemName, price)" style="text;html=1;strokeColor=none;fillColor=none;align=center;verticalAlign=middle;whiteSpace=wrap;rounded=0;" vertex="1" parent="1">
          <mxGeometry x="600" y="470" width="360" height="30" as="geometry" />
        </mxCell>
        <mxCell id="HW165cEcBYJvz82ddMG0-65" value="delete(itemId)" style="text;html=1;strokeColor=none;fillColor=none;align=center;verticalAlign=middle;whiteSpace=wrap;rounded=0;" vertex="1" parent="1">
          <mxGeometry x="600" y="500" width="360" height="30" as="geometry" />
        </mxCell>
        <mxCell id="HW165cEcBYJvz82ddMG0-66" value="" style="whiteSpace=wrap;html=1;aspect=fixed;" vertex="1" parent="1">
          <mxGeometry x="160" y="600" width="360" height="360" as="geometry" />
        </mxCell>
        <mxCell id="HW165cEcBYJvz82ddMG0-67" value="" style="rounded=0;whiteSpace=wrap;html=1;" vertex="1" parent="1">
          <mxGeometry x="160" y="600" width="360" height="30" as="geometry" />
        </mxCell>
        <mxCell id="HW165cEcBYJvz82ddMG0-68" value="Order" style="text;html=1;strokeColor=none;fillColor=none;align=center;verticalAlign=middle;whiteSpace=wrap;rounded=0;" vertex="1" parent="1">
          <mxGeometry x="160" y="600" width="360" height="30" as="geometry" />
        </mxCell>
        <mxCell id="HW165cEcBYJvz82ddMG0-69" value="" style="rounded=0;whiteSpace=wrap;html=1;" vertex="1" parent="1">
          <mxGeometry x="160" y="630" width="360" height="120" as="geometry" />
        </mxCell>
        <mxCell id="HW165cEcBYJvz82ddMG0-70" value="PRIMARY KEY orderId int NOT NULL auto_increment" style="text;html=1;strokeColor=none;fillColor=none;align=center;verticalAlign=middle;whiteSpace=wrap;rounded=0;" vertex="1" parent="1">
          <mxGeometry x="160" y="630" width="360" height="30" as="geometry" />
        </mxCell>
        <mxCell id="HW165cEcBYJvz82ddMG0-71" value="FOREIGN KEY customerId int NOT NULL" style="text;html=1;strokeColor=none;fillColor=none;align=center;verticalAlign=middle;whiteSpace=wrap;rounded=0;" vertex="1" parent="1">
          <mxGeometry x="160" y="660" width="360" height="30" as="geometry" />
        </mxCell>
        <mxCell id="HW165cEcBYJvz82ddMG0-72" value="itemQuantity int" style="text;html=1;strokeColor=none;fillColor=none;align=center;verticalAlign=middle;whiteSpace=wrap;rounded=0;" vertex="1" parent="1">
          <mxGeometry x="160" y="690" width="350" height="30" as="geometry" />
        </mxCell>
        <mxCell id="HW165cEcBYJvz82ddMG0-73" value="total int" style="text;html=1;strokeColor=none;fillColor=none;align=center;verticalAlign=middle;whiteSpace=wrap;rounded=0;" vertex="1" parent="1">
          <mxGeometry x="160" y="720" width="360" height="30" as="geometry" />
        </mxCell>
        <mxCell id="HW165cEcBYJvz82ddMG0-74" value="create(orderId, customerId)" style="text;html=1;strokeColor=none;fillColor=none;align=center;verticalAlign=middle;whiteSpace=wrap;rounded=0;" vertex="1" parent="1">
          <mxGeometry x="160" y="750" width="360" height="30" as="geometry" />
        </mxCell>
        <mxCell id="HW165cEcBYJvz82ddMG0-75" value="update(orderId, customerId, itemQuantity, total)" style="text;html=1;strokeColor=none;fillColor=none;align=center;verticalAlign=middle;whiteSpace=wrap;rounded=0;" vertex="1" parent="1">
          <mxGeometry x="160" y="780" width="360" height="30" as="geometry" />
        </mxCell>
        <mxCell id="HW165cEcBYJvz82ddMG0-76" value="" style="whiteSpace=wrap;html=1;aspect=fixed;" vertex="1" parent="1">
          <mxGeometry x="600" y="600" width="360" height="360" as="geometry" />
        </mxCell>
        <mxCell id="HW165cEcBYJvz82ddMG0-77" value="" style="rounded=0;whiteSpace=wrap;html=1;" vertex="1" parent="1">
          <mxGeometry x="600" y="600" width="360" height="30" as="geometry" />
        </mxCell>
        <mxCell id="HW165cEcBYJvz82ddMG0-78" value="" style="rounded=0;whiteSpace=wrap;html=1;" vertex="1" parent="1">
          <mxGeometry x="600" y="630" width="360" height="120" as="geometry" />
        </mxCell>
        <mxCell id="HW165cEcBYJvz82ddMG0-79" value="Orders_Items" style="text;html=1;strokeColor=none;fillColor=none;align=center;verticalAlign=middle;whiteSpace=wrap;rounded=0;" vertex="1" parent="1">
          <mxGeometry x="600" y="600" width="360" height="30" as="geometry" />
        </mxCell>
        <mxCell id="HW165cEcBYJvz82ddMG0-80" value="PRIMARY KEY ordersItemsId int NOT NULL auto_increment" style="text;html=1;strokeColor=none;fillColor=none;align=center;verticalAlign=middle;whiteSpace=wrap;rounded=0;" vertex="1" parent="1">
          <mxGeometry x="600" y="630" width="360" height="30" as="geometry" />
        </mxCell>
        <mxCell id="HW165cEcBYJvz82ddMG0-81" value="FOREIGN KEY orderId int NOT NULL" style="text;html=1;strokeColor=none;fillColor=none;align=center;verticalAlign=middle;whiteSpace=wrap;rounded=0;" vertex="1" parent="1">
          <mxGeometry x="600" y="660" width="360" height="30" as="geometry" />
        </mxCell>
        <mxCell id="HW165cEcBYJvz82ddMG0-82" value="FOREIGN KEY itemId int NOT NULL" style="text;html=1;strokeColor=none;fillColor=none;align=center;verticalAlign=middle;whiteSpace=wrap;rounded=0;" vertex="1" parent="1">
          <mxGeometry x="600" y="690" width="360" height="30" as="geometry" />
        </mxCell>
        <mxCell id="HW165cEcBYJvz82ddMG0-83" value="addItem(orderId, itemId)" style="text;html=1;strokeColor=none;fillColor=none;align=center;verticalAlign=middle;whiteSpace=wrap;rounded=0;" vertex="1" parent="1">
          <mxGeometry x="600" y="750" width="360" height="30" as="geometry" />
        </mxCell>
        <mxCell id="HW165cEcBYJvz82ddMG0-84" value="delete(orderId)" style="text;html=1;strokeColor=none;fillColor=none;align=center;verticalAlign=middle;whiteSpace=wrap;rounded=0;" vertex="1" parent="1">
          <mxGeometry x="160" y="810" width="360" height="30" as="geometry" />
        </mxCell>
        <mxCell id="HW165cEcBYJvz82ddMG0-85" value="update(id, first_name, surname)" style="text;html=1;strokeColor=none;fillColor=none;align=center;verticalAlign=middle;whiteSpace=wrap;rounded=0;" vertex="1" parent="1">
          <mxGeometry x="160" y="470" width="360" height="30" as="geometry" />
        </mxCell>
        <mxCell id="HW165cEcBYJvz82ddMG0-86" value="delete(id)" style="text;html=1;strokeColor=none;fillColor=none;align=center;verticalAlign=middle;whiteSpace=wrap;rounded=0;" vertex="1" parent="1">
          <mxGeometry x="160" y="500" width="360" height="30" as="geometry" />
        </mxCell>
        <mxCell id="HW165cEcBYJvz82ddMG0-87" value="deleteItem(orderId, itemId" style="text;html=1;strokeColor=none;fillColor=none;align=center;verticalAlign=middle;whiteSpace=wrap;rounded=0;" vertex="1" parent="1">
          <mxGeometry x="600" y="780" width="360" height="30" as="geometry" />
        </mxCell>
      </root>
    </mxGraphModel>
  </diagram>
</mxfile>
